HIERARCHY
ROOT RootJoint
{
    OFFSET   0.000000   0.000000   0.000000
    CHANNELS 6 Xposition Yposition Zposition Xrotation Yrotation Zrotation
    JOINT pelvis_lowerback
    {
        OFFSET   0.000000   0.093605   0.000000
        CHANNELS 3 Xrotation Yrotation Zrotation
        JOINT lowerback_torso
        {
            OFFSET   0.000000   0.100000   0.000000
            CHANNELS 3 Xrotation Yrotation Zrotation
            JOINT torso_head
            {
                OFFSET   0.000000   0.282350   0.000000
                CHANNELS 3 Xrotation Yrotation Zrotation
                End Site
                {
                    OFFSET   0.000000   0.192650   0.000000
                }
            }
            JOINT rTorso_Clavicle
            {
                OFFSET  -0.001000   0.157500   0.000000
                CHANNELS 3 Xrotation Yrotation Zrotation
                JOINT rShoulder
                {
                    OFFSET  -0.117647   0.000000   0.000000
                    CHANNELS 3 Xrotation Yrotation Zrotation
                    JOINT rElbow
                    {
                        OFFSET  -0.245000   0.000000   0.000000
                        CHANNELS 3 Xrotation Yrotation Zrotation
                        JOINT rWrist
                        {
                            OFFSET  -0.240000   0.000000   0.000000
                            CHANNELS 3 Xrotation Yrotation Zrotation
                            End Site
                            {
                                OFFSET  -0.116353  -0.002500   0.000000
                            }
                        }
                    }
                }
            }
            JOINT lTorso_Clavicle
            {
                OFFSET   0.001000   0.157500   0.000000
                CHANNELS 3 Xrotation Yrotation Zrotation
                JOINT lShoulder
                {
                    OFFSET   0.117647   0.000000   0.000000
                    CHANNELS 3 Xrotation Yrotation Zrotation
                    JOINT lElbow
                    {
                        OFFSET   0.245000   0.000000   0.000000
                        CHANNELS 3 Xrotation Yrotation Zrotation
                        JOINT lWrist
                        {
                            OFFSET   0.240000   0.000000   0.000000
                            CHANNELS 3 Xrotation Yrotation Zrotation
                            End Site
                            {
                                OFFSET   0.116353  -0.002500   0.000000
                            }
                        }
                    }
                }
            }
        }
    }
    JOINT rHip
    {
        OFFSET  -0.100000  -0.051395   0.000000
        CHANNELS 3 Xrotation Yrotation Zrotation
        JOINT rKnee
        {
            OFFSET   0.000000  -0.410000   0.000000
            CHANNELS 3 Xrotation Yrotation Zrotation
            JOINT rAnkle
            {
                OFFSET   0.000000  -0.390000   0.000000
                CHANNELS 3 Xrotation Yrotation Zrotation
                JOINT rToeJoint
                {
                    OFFSET   0.000000  -0.050000   0.130000
                    CHANNELS 3 Xrotation Yrotation Zrotation
                    End Site
                    {
                        OFFSET  -0.010000   0.002000   0.060000
                    }
                }
            }
        }
    }
    JOINT lHip
    {
        OFFSET   0.100000  -0.051395   0.000000
        CHANNELS 3 Xrotation Yrotation Zrotation
        JOINT lKnee
        {
            OFFSET   0.000000  -0.410000   0.000000
            CHANNELS 3 Xrotation Yrotation Zrotation
            JOINT lAnkle
            {
                OFFSET   0.000000  -0.390000   0.000000
                CHANNELS 3 Xrotation Yrotation Zrotation
                JOINT lToeJoint
                {
                    OFFSET   0.000000  -0.050000   0.130000
                    CHANNELS 3 Xrotation Yrotation Zrotation
                    End Site
                    {
                        OFFSET   0.010000   0.002000   0.060000
                    }
                }
            }
        }
    }
}
MOTION
Frames: 7
Frame Time:   0.008333
 -2.528679   0.818011   4.008957  14.703691  56.736455 -13.566748  19.218130  -0.079312  -2.974516  -0.279090   0.165976  -0.935662  -7.395414   1.252728   0.663200   3.151776  -4.245463   4.846804  11.936822   5.280965  48.107302  -0.004709  67.128885   0.009474   2.082573   4.885209  -5.180073   3.512382   4.266974  -5.553784   9.591663  -4.816515 -47.579684   0.013770 -70.033672   0.012172  -1.213323  -5.987604   6.092159 -33.570185   0.036873  -5.534585  58.680806  -0.001208  -0.004519 -30.342447  -8.422965  -0.433040  -3.027584   0.000282   0.000403 -36.671293  -3.024560   4.368915  66.746091  -0.000407  -0.005791 -25.908639   4.834839   5.844506 -12.253436   0.001672   0.003034
 -2.529273   0.811961   4.008138  14.766310  56.877928 -13.792893  19.394218  -0.098031  -2.843037  -0.246334   0.133799  -0.895008  -7.561120   1.298976   0.720400   2.873673  -3.815799   5.080220  11.347123   5.135165  47.883926  -0.011247  68.497687   0.013214   1.961605   4.246630  -5.105878   3.301403   3.621544  -5.742996   8.784414  -5.128669 -47.251049   0.015345 -71.534196   0.017865  -1.482508  -5.218120   5.904260 -34.213219  -0.065826  -5.525796  60.061007  -0.000194  -0.003825 -31.537034  -8.414240  -0.365319  -2.546539  -0.000050   0.000417 -37.849606  -3.243050   4.409832  68.844339   0.000663  -0.003038 -25.567766   4.890632   5.813061 -15.056650   0.002753   0.002057
 -2.529761   0.806244   4.007237  14.849168  57.030484 -14.025967  19.530485  -0.103377  -2.723509  -0.271893   0.093828  -0.853131  -7.693990   1.348536   0.772066   2.526181  -3.345053   5.220610  10.719033   5.049139  47.628382  -0.020009  69.841806   0.018138   1.872880   3.933563  -5.079719   2.974510   2.911832  -5.821074   7.916625  -5.506688 -46.891643   0.011704 -73.026710   0.019222  -1.692686  -4.897152   5.725196 -34.784879  -0.163990  -5.538821  61.295636   0.000729  -0.003217 -32.702931  -8.404971  -0.294172  -2.106115  -0.000287   0.000484 -38.988849  -3.434926   4.438490  70.810395   0.002002  -0.000682 -25.216415   4.906108   5.770844 -17.370352   0.002739   0.001356
 -2.530015   0.800834   4.006305  14.936313  57.170107 -14.258482  19.620375  -0.105984  -2.610544  -0.360996   0.051346  -0.811916  -7.816570   1.396117   0.819410   2.143510  -2.854849   5.311983  10.082153   4.999890  47.357402  -0.030074  71.118424   0.024665   1.803675   3.789116  -5.118252   2.594367   2.186518  -5.848071   7.042624  -5.903379 -46.526808   0.005128 -74.449633   0.017122  -1.867972  -4.808623   5.623850 -35.306211  -0.252503  -5.560141  62.433812   0.001472  -0.002817 -33.798453  -8.399361  -0.227419  -1.704039  -0.000390   0.000513 -40.060823  -3.610182   4.456908  72.643285   0.003155   0.000827 -24.874375   4.913525   5.729108 -19.352179   0.002324   0.000913
 -2.529980   0.795709   4.005369  15.013577  57.292075 -14.481132  19.662985  -0.107939  -2.502416  -0.499751   0.008268  -0.771145  -7.934943   1.440670   0.863429   1.750558  -2.366247   5.375991   9.456354   4.974073  47.085666  -0.040651  72.322045   0.032465   1.745920   3.734665  -5.203177   2.197470   1.472895  -5.850220   6.191263  -6.300386 -46.172620  -0.002914 -75.792648   0.012563  -2.022562  -4.834978   5.580344 -35.778077  -0.332780  -5.586393  63.495677   0.002037  -0.002621 -34.817274  -8.396724  -0.165843  -1.336028  -0.000387   0.000496 -41.054774  -3.773229   4.467430  74.355644   0.004014   0.001593 -24.546599   4.918323   5.689331 -21.087921   0.001729   0.000725
 -2.529639   0.790855   4.004438  15.073846  57.396003 -14.688692  19.661931  -0.109512  -2.398753  -0.674568  -0.034388  -0.730809  -8.050865   1.482090   0.904610   1.363096  -1.892398   5.424602   8.853842   4.963014  46.821797  -0.051135  73.452762   0.041001   1.695541   3.732729  -5.315832   1.804113   0.785837  -5.840695   5.377416  -6.688081 -45.837071  -0.011600 -77.054673   0.006308  -2.163356  -4.922228   5.571172 -36.200698  -0.405778  -5.616790  64.491255   0.002447  -0.002587 -35.760077  -8.396359  -0.109458  -0.998883  -0.000311   0.000440 -41.969419  -3.925507   4.471178  75.960189   0.004590   0.001805 -24.233994   4.921374   5.651636 -22.622116   0.001055   0.000736
 -2.529001   0.786261   4.003511  15.115189  57.482638 -14.879737  19.622740  -0.110656  -2.299453  -0.874412  -0.075994  -0.691001  -8.164685   1.520508   0.943213   0.990380  -1.440793   5.464260   8.281398   4.960895  46.570185  -0.061105  74.512648   0.049756   1.650258   3.762379  -5.443115   1.425350   0.133208  -5.826047   4.608164  -7.060965 -45.523350  -0.020466 -78.237791  -0.001068  -2.293984  -5.043070   5.581025 -36.575783  -0.471973  -5.651116  65.425892   0.002728  -0.002666 -36.629371  -8.397827  -0.058202  -0.689884  -0.000189   0.000359 -42.807896  -4.067571   4.468658  77.467163   0.004927   0.001627 -23.936116   4.922752   5.615953 -23.981778   0.000366   0.000875
